<?xml version="1.0" standalone="no"?><!DOCTYPE svg PUBLIC "-//W3C//DTD SVG 1.1//EN" "http://www.w3.org/Graphics/SVG/1.1/DTD/svg11.dtd"><svg class="icon" width="200px" height="200.00px" viewBox="0 0 1024 1024" version="1.1" xmlns="http://www.w3.org/2000/svg"><path fill="#fff" d="M903.04 85.333333H174.72a35.626667 35.626667 0 0 0-35.626667 35.626667v187.946667h-18.133333a35.626667 35.626667 0 1 0 0 71.04h18.133333v264.106666h-18.133333a35.626667 35.626667 0 1 0 0 71.04h18.133333v187.52A35.626667 35.626667 0 0 0 174.293333 938.666667h728.746667A35.626667 35.626667 0 0 0 938.666667 903.04V120.96A35.626667 35.626667 0 0 0 903.04 85.333333z m-35.413333 782.293334H210.346667v-152.533334h18.346666a35.626667 35.626667 0 1 0 0-71.04h-18.346666V379.946667h18.346666a35.626667 35.626667 0 1 0 0-71.04h-18.346666V156.373333h657.28zM336.213333 358.4h351.573334a35.626667 35.626667 0 0 0 0-71.253333H336.213333a35.626667 35.626667 0 0 0 0 71.253333z m0 190.72h351.573334a35.626667 35.626667 0 0 0 0-71.253333H336.213333a35.626667 35.626667 0 0 0 0 71.253333z m0 187.733333h351.573334a35.626667 35.626667 0 0 0 0-71.253333H336.213333a35.626667 35.626667 0 0 0 0 71.253333z" /></svg>