<svg t="1659632904788" class="icon" viewBox="0 0 1024 1024" version="1.1" xmlns="http://www.w3.org/2000/svg" p-id="3663" width="200" height="200"><path d="M510.848781 899.731742c-26.348088 0-49.040926-14.911618-60.823274-36.58422L398.244166 863.147522c14.278191 48.748261 59.312874 84.47495 112.604614 84.47495 53.30402 0 98.341772-35.726689 112.617917-84.47495l-51.779294 0C559.905056 884.821147 537.206078 899.731742 510.848781 899.731742z" p-id="3664"></path><path d="M510.465041 74.048483l0-0.002047c-0.021489 0-0.042979 0.001023-0.064468 0.001023-0.021489 0-0.042979-0.001023-0.064468-0.001023l0 0.002047c-168.028924 1.183965-304.393685 138.154523-304.393685 306.458717 0 114.155946 62.365396 216.673831 161.195286 269.771143l0 134.708028c0 22.01234 17.896602 39.908942 39.908942 39.908942l103.417371 0L614.663194 824.895313c22.01234 0 39.908942-17.896602 39.908942-39.908942l0-134.708028c98.829889-53.097312 161.195286-155.615197 161.195286-269.771143C815.768445 212.203006 678.493965 75.232448 510.465041 74.048483zM607.002724 620.030435l-0.320295 0.144286c-0.025583 0.011256-0.050142 0.023536-0.076748 0.034792l0.076748 0.189312 0 156.605757-96.217389 0-95.435583 0L415.029458 620.398826l0.076748-0.189312c-0.027629-0.011256-0.051165-0.023536-0.076748-0.034792l-0.320295-0.144286c-97.733928-39.940664-160.874991-133.908826-160.874991-239.524259 0-141.916197 114.918309-257.419837 256.567423-258.56901 141.649114 1.149173 257.477142 116.652813 257.477142 258.56901C767.877715 486.12161 704.736653 580.090794 607.002724 620.030435z" p-id="3665"></path></svg>