<?xml version="1.0" standalone="no"?><!DOCTYPE svg PUBLIC "-//W3C//DTD SVG 1.1//EN" "http://www.w3.org/Graphics/SVG/1.1/DTD/svg11.dtd"><svg class="icon" width="200px" height="162.54px" viewBox="0 0 1260 1024" version="1.1" xmlns="http://www.w3.org/2000/svg"><path fill="#2c2c2c" d="M39.384615 78.769231h1181.538462c23.630769 0 39.384615-15.753846 39.384615-39.384616s-15.753846-39.384615-39.384615-39.384615H39.384615C15.753846 0 0 15.753846 0 39.384615s15.753846 39.384615 39.384615 39.384616zM39.384615 393.846154h472.615385c23.630769 0 39.384615-15.753846 39.384615-39.384616S535.630769 315.076923 512 315.076923h-472.615385c-23.630769 0-39.384615 15.753846-39.384615 39.384615s15.753846 39.384615 39.384615 39.384616zM39.384615 708.923077h472.615385c23.630769 0 39.384615-15.753846 39.384615-39.384615S535.630769 630.153846 512 630.153846h-472.615385c-23.630769 0-39.384615 15.753846-39.384615 39.384616s15.753846 39.384615 39.384615 39.384615zM1220.923077 945.230769H39.384615c-23.630769 0-39.384615 15.753846-39.384615 39.384616s15.753846 39.384615 39.384615 39.384615h1181.538462c23.630769 0 39.384615-15.753846 39.384615-39.384615s-15.753846-39.384615-39.384615-39.384616zM827.076923 236.307692c-23.630769-15.753846-55.138462-15.753846-78.769231 0-23.630769 7.876923-39.384615 39.384615-39.384615 63.015385v417.476923c0 31.507692 15.753846 63.015385 39.384615 70.892308 15.753846 7.876923 23.630769 7.876923 39.384616 7.876923s31.507692-7.876923 39.384615-15.753846l330.830769-212.676923c23.630769-15.753846 39.384615-39.384615 39.384616-63.015385 0-23.630769-15.753846-47.261538-39.384616-55.138462L827.076923 236.307692zM787.692308 724.676923V299.323077l330.830769 212.676923L787.692308 724.676923z" /></svg>