<?xml version="1.0" standalone="no"?><!DOCTYPE svg PUBLIC "-//W3C//DTD SVG 1.1//EN" "http://www.w3.org/Graphics/SVG/1.1/DTD/svg11.dtd"><svg class="icon" width="200px" height="162.54px" viewBox="0 0 1260 1024" version="1.1" xmlns="http://www.w3.org/2000/svg"><path fill="#2c2c2c" d="M1220.923077 78.769231H39.384615C15.753846 78.769231 0 63.015385 0 39.384615S15.753846 0 39.384615 0h1181.538462c23.630769 0 39.384615 15.753846 39.384615 39.384615s-15.753846 39.384615-39.384615 39.384616zM1220.923077 393.846154h-472.615385c-23.630769 0-39.384615-15.753846-39.384615-39.384616s15.753846-39.384615 39.384615-39.384615h472.615385c23.630769 0 39.384615 15.753846 39.384615 39.384615s-15.753846 39.384615-39.384615 39.384616zM1220.923077 708.923077h-472.615385c-23.630769 0-39.384615-15.753846-39.384615-39.384615s15.753846-39.384615 39.384615-39.384616h472.615385c23.630769 0 39.384615 15.753846 39.384615 39.384616s-15.753846 39.384615-39.384615 39.384615zM39.384615 945.230769h1181.538462c23.630769 0 39.384615 15.753846 39.384615 39.384616s-15.753846 39.384615-39.384615 39.384615H39.384615c-23.630769 0-39.384615-15.753846-39.384615-39.384615s15.753846-39.384615 39.384615-39.384616zM433.230769 236.307692c23.630769-15.753846 55.138462-15.753846 78.769231 0 23.630769 7.876923 39.384615 39.384615 39.384615 63.015385v417.476923c0 31.507692-15.753846 63.015385-39.384615 70.892308-15.753846 7.876923-23.630769 7.876923-39.384615 7.876923s-31.507692-7.876923-39.384616-15.753846L102.4 567.138462C78.769231 551.384615 63.015385 527.753846 63.015385 504.123077c0-23.630769 15.753846-47.261538 39.384615-55.138462L433.230769 236.307692zM472.615385 724.676923V299.323077L141.784615 512 472.615385 724.676923z" /></svg>