<?xml version="1.0" standalone="no"?><!DOCTYPE svg PUBLIC "-//W3C//DTD SVG 1.1//EN" "http://www.w3.org/Graphics/SVG/1.1/DTD/svg11.dtd"><svg class="icon" width="200px" height="200.00px" viewBox="0 0 1024 1024" version="1.1" xmlns="http://www.w3.org/2000/svg"><path fill="#fff" d="M501.12 501.333333A207.146667 207.146667 0 0 0 533.333333 213.333333a199.893333 199.893333 0 0 0-283.093333-32.426666A206.72 206.72 0 0 0 217.813333 469.333333a202.453333 202.453333 0 0 0 34.346667 34.56A341.333333 341.333333 0 0 0 42.666667 818.346667V853.333333a33.706667 33.706667 0 0 0 33.28 34.133334h603.946666a33.706667 33.706667 0 0 0 33.493334-34.133334v-34.986666a338.56 338.56 0 0 0-212.266667-317.013334zM241.706667 341.333333a134.4 134.4 0 1 1 137.173333 135.893334h-4.266667A135.253333 135.253333 0 0 1 241.706667 341.333333zM110.293333 819.2v-1.28a270.933333 270.933333 0 0 1 264.32-272.213333h6.186667a270.506667 270.506667 0 0 1 266.666667 272.213333l-537.173334 1.28zM948.266667 881.28a32 32 0 0 1-32.853334-32.853333 273.28 273.28 0 0 0-234.666666-272.426667 32 32 0 0 1-32.853334-32.853333 39.893333 39.893333 0 0 1 32.853334-37.546667 154.88 154.88 0 0 0 112.64-145.493333 150.613333 150.613333 0 0 0-112.64-145.28c-14.08-4.693333-28.16-14.08-28.16-28.16A29.013333 29.013333 0 0 1 661.333333 154.026667a31.146667 31.146667 0 0 1 32.853334-9.386667 218.666667 218.666667 0 0 1 154.88 168.746667 232.32 232.32 0 0 1-75.093334 215.893333 341.333333 341.333333 0 0 1 206.506667 320 35.84 35.84 0 0 1-9.386667 23.466667c-9.386667 4.693333-14.08 9.386667-23.466666 9.386666z" /></svg>