<?xml version="1.0" standalone="no"?><!DOCTYPE svg PUBLIC "-//W3C//DTD SVG 1.1//EN" "http://www.w3.org/Graphics/SVG/1.1/DTD/svg11.dtd"><svg class="icon" width="200px" height="200.00px" viewBox="0 0 1024 1024" version="1.1" xmlns="http://www.w3.org/2000/svg"><path fill="#fff" d="M876.586667 228.48l-90.88-89.6-90.453334-85.333333A34.56 34.56 0 0 0 670.933333 42.666667H172.16a35.2 35.2 0 0 0-35.2 35.2v868.266666A34.986667 34.986667 0 0 0 170.666667 981.333333h680.533333a35.2 35.2 0 0 0 34.986667-35.2V253.653333a34.986667 34.986667 0 0 0-9.6-25.173333zM661.333333 117.546667l74.666667 71.893333 72.106667 71.04H661.333333z m156.373334 793.386666H205.44V113.066667h384v183.68a35.413333 35.413333 0 0 0 35.413333 34.986666h192zM438.4 267.733333h-106.666667a42.666667 42.666667 0 0 0-42.666666 41.386667V731.733333c0 10.666667 0 13.44 59.306666 110.293334a42.666667 42.666667 0 0 0 65.066667 7.893333 46.08 46.08 0 0 0 6.186667-7.893333c59.093333-96.853333 59.093333-99.626667 59.093333-110.506667v-422.4a41.173333 41.173333 0 0 0-41.6-41.386667z m-53.12 512c-17.706667-29.226667-27.52-46.293333-31.573333-53.973333V330.88h64V725.333333c-4.906667 7.253333-14.933333 24.32-32.426667 53.546667zM701.013333 592.426667h-122.666666a35.2 35.2 0 0 0 0 70.4h117.333333a35.2 35.2 0 0 0 5.333333-70.4zM545.706667 454.186667a35.626667 35.626667 0 0 0 32.64 32.64h117.333333a35.2 35.2 0 0 0 5.333333-70.4h-122.666666a35.413333 35.413333 0 0 0-32.64 37.76zM701.013333 768a21.333333 21.333333 0 0 0-5.333333 0h-117.333333a35.2 35.2 0 0 0 0 70.4h117.333333a35.2 35.2 0 0 0 5.333333-70.4z" /></svg>