<?xml version="1.0" standalone="no"?><!DOCTYPE svg PUBLIC "-//W3C//DTD SVG 1.1//EN" "http://www.w3.org/Graphics/SVG/1.1/DTD/svg11.dtd"><svg class="icon" width="200px" height="200.00px" viewBox="0 0 1024 1024" version="1.1" xmlns="http://www.w3.org/2000/svg"><path fill="#2c2c2c" d="M545.3 65c38.3 0 69.7 29.2 73.3 66.5l0.4 7.1v265.8h256.8c43 0 78.4 33 82.2 75.2l0.4 7.5v389.1c0 43.1-33 78.5-75.1 82.3l-7.5 0.3H486.6c-43.1 0-78.5-33-82.3-75.1l-0.3-7.5V619.4H138.2c-37.9 0-69.6-28.8-73.3-66.5l-0.3-7.1V138.6c0-38.3 29.2-69.6 66.5-73.2l7.2-0.4h407z m330.4 387.1H619v93.7c-0.1 38.3-29.2 69.7-66.6 73.2l-7.1 0.4h-93.7v256.8c0 17.5 13 32 29.8 34.6l5.1 0.4h389.2c17.5 0 32-13 34.5-29.8l0.4-5.1V487.1c0-19.3-15.5-35-34.9-35zM167.1 666.6l2.8-0.1c12.1 0 22.3 9.1 23.7 21.1 0.2 1.9 3.9 30.1 21.7 60.3 16.6 28.2 45.2 58.1 95.1 70.9l11.1 2.5h0.1c9.7 2.3 16.6 10.1 18.2 19.2l0.4 4.1-0.6 5.4c-2.1 9.4-9.7 16.6-19.2 18.2l-4 0.3-3.8-0.3h-0.1c-73.8-14.3-115.6-57.9-138.5-97.7-13.8-23.6-23.1-49.6-27.6-76.6V693.1l-0.2-2.8c0-10.4 6.7-19.7 16.7-22.8l4.2-0.9 2.7-0.1-2.7 0.1zM695.2 557c8.6 0 16.3 4.5 20.5 11.6l1.8 3.7 84.4 219.9 1.6 8.6c0 8.4-4.4 16.1-11.5 20.5l-3.8 1.9-8.5 1.6c-8.3 0-16.1-4.3-20.5-11.4l-1.9-3.9-18.1-47.5h-89.7l-18.7 47.6c-3.1 7.8-10 13.4-18.3 14.8l-4 0.3-8.7-1.7c-7.8-3.1-13.4-9.9-14.8-18.2l-0.3-4.1 1.7-8.8L673 572c3-7.8 9.8-13.4 18-14.8l4.2-0.2h0.1-0.1z m-0.3 89.7l-26.6 67.6h52.5l-25.9-67.6z m-149.6-534h-407c-12.5 0.1-23.2 9-25.5 21.3l-0.4 4.6v407.3c0 12.5 9 23.2 21.2 25.4l4.7 0.5h407.2c12.5-0.1 23.2-9 25.5-21.3l0.4-4.7V138.6c0-14.3-11.6-25.9-25.9-25.9h-0.2z m-205.6 75.7c13.2 0 23.8 10.7 23.8 23.8v27.7h77.8c20 0 36.3 16.2 36.3 36.3v75.2c0 20-16.3 36.3-36.3 36.3h-77.8v89.2c-0.6 12.8-11.1 22.8-23.9 22.8-12.8 0-23.3-10-23.9-22.8v-89.2H238c-20-0.1-36.3-16.3-36.3-36.4v-75.1c0.1-20 16.3-36.2 36.3-36.3h77.8v-27.7c0-13.1 10.7-23.8 23.9-23.8z m90.2 99.2h-66.4V340h66.3l0.1-52.4z m-114.1 0h-66.4V340h66.3l0.1-52.4zM714.2 139l1.8 0.1c29.3 2.3 71.2 13.9 106.8 40.9 33.1 25.2 60.4 64.2 65.2 120.8l0.7 12.4c0 11.9-8.1 21.7-19 24l-4.2 0.5h-0.7c-12.9 0-23.5-10.3-23.8-23.3-1.7-58.3-32.1-89.4-63.3-107-20-10.9-41.9-18-64.6-20.7l-0.9-0.1-4.5-0.8c-8.7-2.4-15.3-9.6-17-18.4l-0.4-4.5 0.1-1.9c1.1-12.4 11.5-21.9 23.8-22z m0 0"  /></svg>