<?xml version="1.0" standalone="no"?><!DOCTYPE svg PUBLIC "-//W3C//DTD SVG 1.1//EN" "http://www.w3.org/Graphics/SVG/1.1/DTD/svg11.dtd"><svg class="icon" width="200px" height="200.00px" viewBox="0 0 1024 1024" version="1.1" xmlns="http://www.w3.org/2000/svg"><path fill="#fff" d="M450.773333 85.333333A221.653333 221.653333 0 0 0 234.666667 307.413333a224.64 224.64 0 0 0 85.333333 176A368.213333 368.213333 0 0 0 85.333333 827.733333 109.653333 109.653333 0 0 0 194.346667 938.666667H469.333333a35.2 35.2 0 0 0 32.426667-35.626667A32.64 32.64 0 0 0 469.333333 867.413333H194.56a38.186667 38.186667 0 0 1-26.666667-11.093333 37.546667 37.546667 0 0 1-11.733333-27.093333v-1.28A302.08 302.08 0 0 1 426.666667 529.706667h33.28c25.173333-1.92 86.826667-9.386667 118.186666-37.76l12.586667-9.173334A222.933333 222.933333 0 0 0 450.773333 85.333333z m156.373334 222.08a150.826667 150.826667 0 1 1-150.826667-151.253333 151.253333 151.253333 0 0 1 150.826667 151.253333zM933.973333 677.973333h-2.133333 2.133333a49.28 49.28 0 0 0-35.84-40.533333 64 64 0 0 1-23.466666-12.586667v-3.84a39.253333 39.253333 0 0 1 1.706666-25.6 49.493333 49.493333 0 0 0-21.333333-52.266666l-64-36.48c-14.293333-4.906667-40.746667-6.186667-51.626667 10.453333a80.213333 80.213333 0 0 1-22.613333 16.213333 74.88 74.88 0 0 1-22.613333-16.213333 56.106667 56.106667 0 0 0-57.173334-10.24l-68.266666 36.48a58.666667 58.666667 0 0 0-21.333334 50.986667v2.346666a37.546667 37.546667 0 0 1 1.28 24.32 157.226667 157.226667 0 0 1-24.533333 16.426667 57.386667 57.386667 0 0 0-35.626667 40.106667 128 128 0 0 0-4.906666 42.666666 128 128 0 0 0 4.693333 42.666667 49.706667 49.706667 0 0 0 35.84 40.746667 64 64 0 0 1 22.613333 12.586666v1.92l1.92 1.92a39.253333 39.253333 0 0 1-1.706666 25.6 49.92 49.92 0 0 0 21.333333 52.266667l62.293333 35.413333a27.52 27.52 0 0 0 21.333334 5.973334 56.533333 56.533333 0 0 0 36.053333-15.36 75.733333 75.733333 0 0 1 21.333333-16.213334 73.173333 73.173333 0 0 1 22.826667 16.213334 47.36 47.36 0 0 0 36.053333 15.36 40.533333 40.533333 0 0 0 21.333334-5.333334l64-36.266666a59.306667 59.306667 0 0 0 21.333333-50.986667v-2.346667a37.546667 37.546667 0 0 1-0.213333-24.96 157.226667 157.226667 0 0 1 24.533333-16.426666 58.453333 58.453333 0 0 0 36.053333-42.666667s0-4.693333 1.066667-7.466667a210.773333 210.773333 0 0 0 2.346667-32.64 200.746667 200.746667 0 0 0-4.693334-42.24z m-107.733333 170.666667l-53.76 33.066667A102.186667 102.186667 0 0 0 715.733333 853.333333a99.626667 99.626667 0 0 0-53.333333 22.826667l-5.12 3.413333-56.32-32.213333a104.746667 104.746667 0 0 0-6.186667-64 95.36 95.36 0 0 0-42.666666-32l-7.253334-3.626667-4.053333-4.266666a134.186667 134.186667 0 0 0-3.2-21.333334 49.28 49.28 0 0 1-1.28-6.826666 108.16 108.16 0 0 1 3.626667-27.093334c11.733333-5.12 46.08-21.333333 54.186666-42.666666a99.2 99.2 0 0 0 5.973334-62.506667l55.253333-27.52a103.253333 103.253333 0 0 0 55.253333 25.813333 98.986667 98.986667 0 0 0 53.12-22.826666l1.92-1.493334 3.2-2.133333 52.266667 32.213333a99.84 99.84 0 0 0 5.973333 62.72 95.573333 95.573333 0 0 0 42.666667 31.786667l7.466667 3.84 4.266666 4.48c0 2.346667 0 5.333333 1.493334 9.386667a117.973333 117.973333 0 0 1 2.773333 19.413333 121.173333 121.173333 0 0 1-2.773333 19.413333v7.04A85.333333 85.333333 0 0 0 832 784.64a99.413333 99.413333 0 0 0-5.76 62.72z m1.28 0zM711.253333 628.053333a92.16 92.16 0 1 0 91.946667 92.16 92.16 92.16 0 0 0-91.946667-92.16z m0 130.986667a38.826667 38.826667 0 1 1 38.613334-38.826667 38.826667 38.826667 0 0 1-38.613334 38.826667z" /></svg>